<svg width="28" height="28" viewBox="0 0 28 28" fill="none" xmlns="http://www.w3.org/2000/svg">
<path d="M9.75 14H14M14 14H18.25M14 14V9.75M14 14V18.25M26.75 2.1V25.9C26.75 26.1254 26.6604 26.3416 26.501 26.501C26.3416 26.6604 26.1254 26.75 25.9 26.75H2.1C1.87457 26.75 1.65837 26.6604 1.49896 26.501C1.33955 26.3416 1.25 26.1254 1.25 25.9V2.1C1.25 1.87457 1.33955 1.65837 1.49896 1.49896C1.65837 1.33955 1.87457 1.25 2.1 1.25H25.9C26.1254 1.25 26.3416 1.33955 26.501 1.49896C26.6604 1.65837 26.75 1.87457 26.75 2.1Z" stroke="url(#paint0_linear_589_1431)" stroke-width="1.5" stroke-linecap="round" stroke-linejoin="round"/>
<defs>
<linearGradient id="paint0_linear_589_1431" x1="1.25" y1="14.3643" x2="26.75" y2="14.3643" gradientUnits="userSpaceOnUse">
<stop stop-color="#FF8200"/>
<stop offset="1" stop-color="#FF2415"/>
</linearGradient>
</defs>
</svg>
