<svg width="28" height="25" viewBox="0 0 28 25" fill="none" xmlns="http://www.w3.org/2000/svg">
<path id="Vector" d="M17.143 3.77151L19.4247 1.73651C19.711 1.48104 20.051 1.27837 20.4252 1.1401C20.7993 1.00183 21.2004 0.930664 21.6054 0.930664C22.0104 0.930664 22.4114 1.00183 22.7856 1.1401C23.1598 1.27837 23.4997 1.48104 23.7861 1.73651L25.966 3.68076C26.544 4.19647 26.8687 4.89581 26.8687 5.62501C26.8687 6.35422 26.544 7.05356 25.966 7.56926L23.6843 9.60426M17.143 3.77151L2.31836 16.9921C1.8065 17.4487 1.49106 18.0513 1.42728 18.6944L1.0542 22.4619C1.03416 22.6622 1.06362 22.8639 1.14049 23.053C1.21737 23.242 1.33979 23.4137 1.49914 23.5559C1.65848 23.6982 1.85086 23.8075 2.06273 23.8762C2.2746 23.945 2.50079 23.9714 2.72536 23.9538L6.94953 23.621C7.67169 23.5648 8.34854 23.2834 8.8612 22.8263L23.6843 9.60426M17.143 3.77151L23.6843 9.60426" stroke="url(#paint0_linear_69_1420)" stroke-width="1.5" stroke-linecap="round" stroke-linejoin="round"/>
<defs>
<linearGradient id="paint0_linear_69_1420" x1="1.0481" y1="12.7739" x2="26.8687" y2="12.7739" gradientUnits="userSpaceOnUse">
<stop stop-color="#FF8200"/>
<stop offset="1" stop-color="#FF2415"/>
</linearGradient>
</defs>
</svg>
