<?xml version="1.0" encoding="UTF-8" standalone="no"?>
<!DOCTYPE svg PUBLIC "-//W3C//DTD SVG 1.1//EN" "http://www.w3.org/Graphics/SVG/1.1/DTD/svg11.dtd">
<svg xmlns="http://www.w3.org/2000/svg" version="1.1" viewBox="0 0 500 194">
<g stroke-width="2.00" fill="none" stroke-linecap="butt">
<path stroke="#f52919" vector-effect="non-scaling-stroke" d="
  M 153.64 38.70
  Q 148.15 38.71 142.57 38.66
  Q 135.84 38.61 131.58 39.64
  Q 116.07 43.42 105.29 55.75"
/>
<path stroke="#ff4e0b" vector-effect="non-scaling-stroke" d="
  M 105.29 55.75
  Q 104.71 55.03 103.86 54.78
  Q 103.36 54.63 103.09 54.19
  Q 98.69 47.06 94.50 39.80
  C 93.48 38.03 93.71 36.70 93.71 34.75"
/>
<path stroke="#f52919" vector-effect="non-scaling-stroke" d="
  M 127.04 160.50
  Q 125.00 159.48 122.65 159.80
  Q 121.29 159.99 122.59 159.55
  L 122.91 159.45
  Q 123.15 159.36 122.95 159.20
  Q 118.68 155.73 116.72 150.61
  Q 116.52 150.10 116.08 149.77
  L 115.02 148.97
  Q 114.86 148.85 115.05 148.78
  Q 115.63 148.55 116.00 148.04"
/>
<path stroke="#f52919" vector-effect="non-scaling-stroke" d="
  M 149.71 117.75
  Q 153.59 106.88 151.83 95.50
  Q 151.75 95.00 151.41 94.64
  L 150.79 94.00"
/>
<path stroke="#f53a15" vector-effect="non-scaling-stroke" d="
  M 105.29 55.75
  Q 95.38 68.70 94.75 86.24
  Q 94.55 91.75 96.63 95.29"
/>
<path stroke="#ff4e0b" vector-effect="non-scaling-stroke" d="
  M 144.75 111.96
  Q 145.03 116.94 149.71 117.75"
/>
<path stroke="#f53a15" vector-effect="non-scaling-stroke" d="
  M 149.71 117.75
  Q 140.55 141.37 116.00 148.04"
/>
<path stroke="#ff4e0b" vector-effect="non-scaling-stroke" d="
  M 116.00 148.04
  L 114.33 148.23"
/>
<path stroke="#ff6706" vector-effect="non-scaling-stroke" d="
  M 114.33 148.23
  Q 110.04 140.33 105.71 132.61
  C 101.61 125.28 95.96 116.78 91.46 108.21
  Q 88.96 103.43 85.61 97.96
  C 80.50 89.62 76.03 80.96 69.98 71.02
  C 68.13 67.98 67.86 65.41 67.05 62.04
  Q 66.95 61.60 66.50 61.54
  Q 66.20 61.51 66.00 61.21"
/>
<path stroke="#ff5609" vector-effect="non-scaling-stroke" d="
  M 114.33 148.23
  Q 89.08 152.45 71.58 134.84
  Q 71.25 134.50 70.77 134.50
  L 70.29 134.50"
/>
</g>
<path fill="#ff3d0e" d="
  M 153.64 38.70
  Q 148.15 38.71 142.57 38.66
  Q 135.84 38.61 131.58 39.64
  Q 116.07 43.42 105.29 55.75
  Q 104.71 55.03 103.86 54.78
  Q 103.36 54.63 103.09 54.19
  Q 98.69 47.06 94.50 39.80
  C 93.48 38.03 93.71 36.70 93.71 34.75
  Q 124.43 19.56 155.04 34.80
  Q 155.46 35.01 155.25 35.43
  L 153.64 38.70
  Z"
/>
<path fill="#ff5f07" d="
  M 93.71 34.75
  C 93.71 36.70 93.48 38.03 94.50 39.80
  Q 98.69 47.06 103.09 54.19
  Q 103.36 54.63 103.86 54.78
  Q 104.71 55.03 105.29 55.75
  Q 95.38 68.70 94.75 86.24
  Q 94.55 91.75 96.63 95.29
  Q 97.95 108.96 107.81 116.44
  C 119.03 124.95 135.65 123.36 144.75 111.96
  Q 145.03 116.94 149.71 117.75
  Q 140.55 141.37 116.00 148.04
  L 114.33 148.23
  Q 110.04 140.33 105.71 132.61
  C 101.61 125.28 95.96 116.78 91.46 108.21
  Q 88.96 103.43 85.61 97.96
  C 80.50 89.62 76.03 80.96 69.98 71.02
  C 68.13 67.98 67.86 65.41 67.05 62.04
  Q 66.95 61.60 66.50 61.54
  Q 66.20 61.51 66.00 61.21
  Q 75.74 43.68 93.71 34.75
  Z"
/>
<circle fill="#0066cd" cx="174.86" cy="47.03" r="11.70"/>
<path fill="#eb1523" d="
  M 153.64 38.70
  Q 149.40 55.87 162.24 65.03
  C 169.23 70.02 177.17 70.78 185.01 67.49
  A 0.43 0.43 0.0 0 1 185.57 67.73
  C 192.73 85.85 192.17 105.30 183.71 122.75
  C 173.52 143.76 151.53 159.89 127.04 160.50
  Q 125.00 159.48 122.65 159.80
  Q 121.29 159.99 122.59 159.55
  L 122.91 159.45
  Q 123.15 159.36 122.95 159.20
  Q 118.68 155.73 116.72 150.61
  Q 116.52 150.10 116.08 149.77
  L 115.02 148.97
  Q 114.86 148.85 115.05 148.78
  Q 115.63 148.55 116.00 148.04
  Q 140.55 141.37 149.71 117.75
  Q 153.59 106.88 151.83 95.50
  Q 151.75 95.00 151.41 94.64
  L 150.79 94.00
  C 150.07 57.75 97.28 55.78 96.63 95.29
  Q 94.55 91.75 94.75 86.24
  Q 95.38 68.70 105.29 55.75
  Q 116.07 43.42 131.58 39.64
  Q 135.84 38.61 142.57 38.66
  Q 148.15 38.71 153.64 38.70
  Z"
/>
<path fill="#ff6e04" d="
  M 66.00 61.21
  Q 66.20 61.51 66.50 61.54
  Q 66.95 61.60 67.05 62.04
  C 67.86 65.41 68.13 67.98 69.98 71.02
  C 76.03 80.96 80.50 89.62 85.61 97.96
  Q 88.96 103.43 91.46 108.21
  C 95.96 116.78 101.61 125.28 105.71 132.61
  Q 110.04 140.33 114.33 148.23
  Q 89.08 152.45 71.58 134.84
  Q 71.25 134.50 70.77 134.50
  L 70.29 134.50
  C 53.80 113.25 52.99 84.12 66.00 61.21
  Z"
/>
<path fill="#fefefe" d="
  M 260.74 93.89
  A 21.14 21.14 0.0 0 1 239.60 115.03
  A 21.14 21.14 0.0 0 1 218.46 93.89
  A 21.14 21.14 0.0 0 1 239.60 72.75
  A 21.14 21.14 0.0 0 1 260.74 93.89
  Z
  M 252.79 93.89
  A 13.22 13.22 0.0 0 0 239.57 80.67
  A 13.22 13.22 0.0 0 0 226.35 93.89
  A 13.22 13.22 0.0 0 0 239.57 107.11
  A 13.22 13.22 0.0 0 0 252.79 93.89
  Z"
/>
<path fill="#fefefe" d="
  M 357.13 93.71
  C 356.97 107.15 348.52 116.28 335.10 115.01
  C 308.96 112.54 308.66 75.50 334.63 72.90
  Q 345.97 71.77 354.10 81.59
  A 0.59 0.58 55.6 0 1 353.94 82.47
  L 348.11 85.86
  Q 347.67 86.12 347.33 85.75
  Q 340.21 78.28 331.78 81.50
  C 318.53 86.56 321.26 105.64 335.49 107.10
  Q 344.56 108.03 348.55 100.44
  A 0.64 0.64 0.0 0 0 347.99 99.50
  L 337.12 99.50
  Q 336.49 99.50 336.50 98.87
  L 336.51 92.90
  Q 336.51 92.25 337.16 92.25
  L 355.69 92.25
  Q 357.15 92.25 357.13 93.71
  Z"
/>
<path fill="#fefefe" d="
  M 421.20 75.60
  C 428.89 69.42 439.81 73.45 444.26 81.42
  Q 444.54 81.91 444.05 82.19
  L 438.28 85.57
  Q 437.77 85.87 437.49 85.34
  Q 434.63 80.05 428.95 80.73
  C 426.50 81.02 424.31 82.59 424.72 85.25
  C 425.89 92.91 449.80 88.66 445.12 106.20
  C 442.98 114.22 433.49 116.07 426.26 114.44
  Q 418.26 112.63 415.15 105.57
  Q 414.90 105.01 415.43 104.69
  L 421.26 101.27
  Q 421.73 101.00 421.99 101.48
  Q 425.96 108.87 434.67 106.66
  C 438.79 105.62 438.27 100.42 434.49 99.03
  C 429.59 97.23 422.84 95.66 419.49 92.22
  C 414.75 87.37 416.10 79.69 421.20 75.60
  Z"
/>
<path fill="#fefefe" d="
  M 274.19 100.81
  L 274.28 113.61
  Q 274.28 114.25 273.64 114.25
  L 266.53 114.25
  A 0.53 0.53 0.0 0 1 266.00 113.72
  L 266.00 74.24
  Q 266.00 73.62 266.62 73.60
  Q 279.91 73.26 284.91 73.88
  C 297.51 75.44 299.44 92.75 288.51 98.70
  Q 288.03 98.96 288.31 99.42
  L 296.67 113.55
  Q 297.08 114.25 296.27 114.25
  L 288.96 114.25
  Q 288.32 114.25 288.01 113.70
  L 280.46 100.70
  Q 280.20 100.25 279.69 100.25
  L 274.75 100.25
  Q 274.18 100.25 274.19 100.81
  Z
  M 274.18 92.68
  A 0.37 0.36 89.2 0 0 274.55 93.05
  C 277.88 92.99 283.09 93.76 285.69 91.73
  C 288.59 89.46 288.46 84.00 285.07 81.99
  C 282.77 80.63 277.56 81.25 274.76 81.25
  Q 274.29 81.25 274.28 81.73
  L 274.18 92.68
  Z"
/>
<rect fill="#fefefe" x="-4.10" y="-20.37" transform="translate(305.60,93.88) rotate(-0.1)" width="8.20" height="40.74" rx="0.58"/>
<rect fill="#fefefe" x="362.50" y="73.51" width="8.00" height="40.74" rx="0.43"/>
<path fill="#fefefe" d="
  M 401.84 73.50
  L 409.16 73.50
  A 0.34 0.34 0.0 0 1 409.50 73.84
  L 409.50 113.91
  A 0.34 0.34 0.0 0 1 409.16 114.25
  L 403.61 114.25
  A 0.34 0.34 0.0 0 1 403.33 114.11
  L 386.82 90.56
  A 0.34 0.34 0.0 0 0 386.20 90.75
  L 386.27 113.91
  A 0.34 0.34 0.0 0 1 385.93 114.25
  L 378.34 114.25
  A 0.34 0.34 0.0 0 1 378.00 113.91
  L 378.00 73.83
  A 0.34 0.34 0.0 0 1 378.34 73.49
  L 383.94 73.51
  A 0.34 0.34 0.0 0 1 384.22 73.65
  L 400.88 97.40
  A 0.34 0.34 0.0 0 0 401.50 97.20
  L 401.50 73.84
  A 0.34 0.34 0.0 0 1 401.84 73.50
  Z"
/>
<path fill="#ff3d0e" d="
  M 150.79 94.00
  L 151.41 94.64
  Q 151.75 95.00 151.83 95.50
  Q 153.59 106.88 149.71 117.75
  Q 145.03 116.94 144.75 111.96
  Q 150.76 104.03 150.79 94.00
  Z"
/>
<path fill="#fefefe" d="
  M 322.80 137.81
  L 319.43 137.62
  Q 318.86 137.59 318.66 137.05
  C 317.82 134.73 323.46 135.43 324.97 135.65
  Q 325.47 135.73 325.50 136.23
  C 325.67 139.14 326.91 143.80 323.21 145.01
  C 309.94 149.39 304.53 130.78 316.22 126.52
  C 317.59 126.01 327.34 125.89 325.53 129.79
  A 0.70 0.69 -61.7 0 1 324.53 130.09
  Q 318.13 126.00 314.19 130.75
  C 309.22 136.77 314.95 146.51 322.76 142.59
  Q 323.23 142.35 323.24 141.82
  L 323.26 138.30
  Q 323.26 137.84 322.80 137.81
  Z"
/>
<path fill="#fefefe" d="
  M 297.56 141.31
  C 295.12 145.85 289.10 145.76 284.71 145.43
  A 0.76 0.75 2.0 0 1 284.00 144.68
  L 284.00 127.24
  A 0.92 0.92 0.0 0 1 284.84 126.32
  C 288.64 126.01 292.80 125.86 295.83 128.41
  Q 301.81 133.43 297.56 141.31
  Z
  M 286.93 143.03
  C 299.47 146.37 300.38 125.72 286.94 128.74
  Q 286.50 128.84 286.50 129.29
  L 286.50 142.47
  Q 286.50 142.92 286.93 143.03
  Z"
/>
<rect fill="#fefefe" x="303.25" y="126.25" width="2.50" height="19.24" rx="1.19"/>
<rect fill="#fefefe" x="-1.27" y="-9.55" transform="translate(330.98,135.85) rotate(-0.2)" width="2.54" height="19.10" rx="1.12"/>
<path fill="#fefefe" d="
  M 340.98 128.50
  L 335.79 128.49
  A 0.77 0.77 0.0 0 1 335.03 127.59
  C 335.19 126.70 335.72 126.28 336.66 126.28
  Q 343.29 126.21 349.81 126.27
  A 0.71 0.70 88.3 0 1 350.51 126.94
  C 350.64 129.31 346.26 128.48 344.74 128.51
  Q 344.26 128.52 344.26 129.00
  L 344.23 144.12
  A 1.32 1.31 -9.7 0 1 343.35 145.36
  C 342.22 145.75 341.47 145.05 341.49 143.91
  Q 341.56 136.45 341.48 128.99
  Q 341.47 128.51 340.98 128.50
  Z"
/>
<path fill="#fefefe" d="
  M 361.38 141.25
  L 353.78 141.25
  Q 353.16 141.25 352.92 141.82
  L 351.48 145.18
  Q 351.19 145.85 350.55 145.51
  L 349.50 144.93
  Q 348.98 144.65 349.21 144.10
  L 356.52 126.77
  A 1.12 1.12 0.0 0 1 358.59 126.77
  L 365.83 144.11
  Q 366.06 144.66 365.54 144.96
  L 364.48 145.57
  Q 363.88 145.92 363.61 145.28
  L 362.10 141.72
  Q 361.90 141.25 361.38 141.25
  Z
  M 354.14 138.82
  A 0.33 0.33 0.0 0 0 354.45 139.27
  L 360.77 139.23
  A 0.33 0.33 0.0 0 0 361.08 138.77
  L 357.86 131.22
  A 0.33 0.33 0.0 0 0 357.25 131.22
  L 354.14 138.82
  Z"
/>
<path fill="#fefefe" d="
  M 371.75 142.75
  L 380.28 142.75
  A 0.96 0.95 79.2 0 1 381.17 143.36
  C 382.54 146.89 370.90 145.46 369.28 145.31
  Q 368.75 145.27 368.75 144.74
  L 368.75 127.16
  Q 368.75 126.51 369.40 126.45
  L 370.52 126.36
  Q 371.25 126.29 371.25 127.03
  L 371.25 142.25
  Q 371.25 142.75 371.75 142.75
  Z"
/>
<path fill="#ff3d0e" d="
  M 70.29 134.50
  L 70.77 134.50
  Q 71.25 134.50 71.58 134.84
  Q 89.08 152.45 114.33 148.23
  L 116.00 148.04
  Q 115.63 148.55 115.05 148.78
  Q 114.86 148.85 115.02 148.97
  L 116.08 149.77
  Q 116.52 150.10 116.72 150.61
  Q 118.68 155.73 122.95 159.20
  Q 123.15 159.36 122.91 159.45
  L 122.59 159.55
  Q 121.29 159.99 122.65 159.80
  Q 125.00 159.48 127.04 160.50
  Q 124.04 160.94 121.00 160.78
  Q 89.44 159.17 70.29 134.50
  Z"
/>
<circle fill="#ff6e04" cx="66.93" cy="156.94" r="7.75"/>
</svg>
