<svg width="45" height="41" viewBox="0 0 45 41" fill="none" xmlns="http://www.w3.org/2000/svg">
<g id="Frame">
<path id="Vector" d="M26.9306 9.6555L29.7056 7.12717C30.0539 6.80976 30.4673 6.55796 30.9224 6.38617C31.3775 6.21438 31.8652 6.12596 32.3578 6.12596C32.8504 6.12596 33.3382 6.21438 33.7932 6.38617C34.2483 6.55796 34.6618 6.80976 35.01 7.12717L37.6613 9.54275C38.3643 10.1835 38.7592 11.0524 38.7592 11.9583C38.7592 12.8643 38.3643 13.7332 37.6613 14.3739L34.8863 16.9023M26.9306 9.6555L8.90063 26.0811C8.2781 26.6483 7.89445 27.397 7.81688 28.196L7.36313 32.8769C7.33876 33.1257 7.37459 33.3764 7.46809 33.6112C7.56159 33.8461 7.71048 34.0594 7.90428 34.2361C8.09807 34.4129 8.33205 34.5487 8.58973 34.6341C8.8474 34.7195 9.1225 34.7524 9.39563 34.7304L14.5331 34.317C15.4114 34.2471 16.2346 33.8975 16.8581 33.3296L34.8863 16.9023M26.9306 9.6555L34.8863 16.9023" stroke="url(#paint0_linear_5_844)" stroke-width="1.5" stroke-linecap="round" stroke-linejoin="round"/>
</g>
<defs>
<linearGradient id="paint0_linear_5_844" x1="7.35571" y1="20.8402" x2="38.7592" y2="20.8402" gradientUnits="userSpaceOnUse">
<stop stop-color="#FF8200"/>
<stop offset="1" stop-color="#FF2415"/>
</linearGradient>
</defs>
</svg>
