<svg width="38" height="36" viewBox="0 0 38 36" fill="none" xmlns="http://www.w3.org/2000/svg">
<g id="Frame">
<path id="Vector" d="M26.5416 25.4738L32.7083 31.3071M4.95831 16.7238C4.95831 19.818 6.25771 22.7855 8.57066 24.9734C10.8836 27.1613 14.0206 28.3905 17.2916 28.3905C20.5626 28.3905 23.6997 27.1613 26.0126 24.9734C28.3256 22.7855 29.625 19.818 29.625 16.7238C29.625 13.6296 28.3256 10.6621 26.0126 8.47422C23.6997 6.28629 20.5626 5.05713 17.2916 5.05713C14.0206 5.05713 10.8836 6.28629 8.57066 8.47422C6.25771 10.6621 4.95831 13.6296 4.95831 16.7238Z" stroke="url(#paint0_linear_8_41)" stroke-width="1.5" stroke-linecap="round" stroke-linejoin="round"/>
</g>
<defs>
<linearGradient id="paint0_linear_8_41" x1="4.95831" y1="18.5571" x2="32.7083" y2="18.5571" gradientUnits="userSpaceOnUse">
<stop stop-color="#FF8200"/>
<stop offset="1" stop-color="#FF2415"/>
</linearGradient>
</defs>
</svg>
