<svg width="35" height="35" viewBox="0 0 35 35" fill="none" xmlns="http://www.w3.org/2000/svg">
<path d="M14.6563 15.4686L4.3459 25.779C4.07472 26.0499 3.85959 26.3716 3.71281 26.7257C3.56603 27.0797 3.49048 27.4593 3.49048 27.8426C3.49048 28.2259 3.56603 28.6054 3.71281 28.9595C3.85959 29.3136 4.07472 29.6352 4.3459 29.9061C4.89285 30.4529 5.63459 30.7601 6.40798 30.7601C7.18138 30.7601 7.92311 30.4529 8.47006 29.9061L18.7805 19.5928M25.0732 20.1251L30.7286 25.7805C31.2754 26.3274 31.5826 27.0692 31.5826 27.8426C31.5826 28.616 31.2754 29.3577 30.7286 29.9047C30.1816 30.4514 29.4399 30.7586 28.6665 30.7586C27.8931 30.7586 27.1514 30.4514 26.6044 29.9047L17.5496 20.8513M9.81902 8.61007L6.72298 9.63966L3.63131 4.48445L5.6934 2.42236L10.8501 5.51549L9.81902 8.61007ZM9.81902 8.61007L13.9461 12.7372" stroke="url(#paint0_linear_444_1432)" stroke-width="1.45833" stroke-linecap="round" stroke-linejoin="round"/>
<path d="M14.6562 15.4685C13.4254 12.3287 13.666 8.20894 16.2035 5.67144C18.741 3.13394 23.4223 2.57831 25.9991 4.1256L21.5658 8.55894L21.1531 13.0958L25.69 12.6846L30.1233 8.24977C31.6721 10.8281 31.115 15.5094 28.5775 18.0454C26.04 20.5829 21.9216 20.8235 18.7819 19.5927" stroke="url(#paint1_linear_444_1432)" stroke-width="1.45833" stroke-linecap="round" stroke-linejoin="round"/>
<defs>
<linearGradient id="paint0_linear_444_1432" x1="3.49048" y1="16.996" x2="31.5826" y2="16.996" gradientUnits="userSpaceOnUse">
<stop stop-color="#FF8200"/>
<stop offset="1" stop-color="#FF2415"/>
</linearGradient>
<linearGradient id="paint1_linear_444_1432" x1="13.9358" y1="12.0329" x2="30.9839" y2="12.0329" gradientUnits="userSpaceOnUse">
<stop stop-color="#FF8200"/>
<stop offset="1" stop-color="#FF2415"/>
</linearGradient>
</defs>
</svg>
