<svg width="39" height="37" viewBox="0 0 39 37" fill="none" xmlns="http://www.w3.org/2000/svg">
<g id="trash 1">
<path id="Vector" d="M32.5 13.875L29.2581 31.3667C29.1259 32.0811 28.7324 32.7284 28.1469 33.1947C27.5614 33.6611 26.8214 33.9167 26.0569 33.9167H12.9431C12.1786 33.9167 11.4386 33.6611 10.8531 33.1947C10.2676 32.7284 9.87413 32.0811 9.74187 31.3667L6.5 13.875M34.125 9.25H24.9844M24.9844 9.25V6.16666C24.9844 5.34891 24.642 4.56465 24.0325 3.98642C23.423 3.40818 22.5963 3.08333 21.7344 3.08333H17.2656C16.4037 3.08333 15.577 3.40818 14.9675 3.98642C14.358 4.56465 14.0156 5.34891 14.0156 6.16666V9.25M24.9844 9.25H14.0156M4.875 9.25H14.0156" stroke="url(#paint0_linear_516_1428)" stroke-width="1.5" stroke-linecap="round" stroke-linejoin="round"/>
</g>
<defs>
<linearGradient id="paint0_linear_516_1428" x1="4.875" y1="18.9405" x2="34.125" y2="18.9405" gradientUnits="userSpaceOnUse">
<stop stop-color="#FF8200"/>
<stop offset="1" stop-color="#FF2415"/>
</linearGradient>
</defs>
</svg>
